<?xml version="1.0" ?><!-- Uploaded to: SVG Repo, www.svgrepo.com, Generator: SVG Repo Mixer Tools -->
<svg width="800px" height="800px" viewBox="0 0 24 24" data-name="Layer 1" id="Layer_1" xmlns="http://www.w3.org/2000/svg"><title/><circle cx="12" cy="12" r="10.00005" style="fill:#4b5661" transform="translate(-4.97056 12) rotate(-45)"/><path d="M12,18.9966a6.9966,6.9966,0,1,1,4.9497-2.0469A6.97758,6.97758,0,0,1,12,18.9966ZM12,6.5024a5.4976,5.4976,0,1,0,3.8892,1.6084A5.48384,5.48384,0,0,0,12,6.5024Z" style="fill:#fa6d62"/><path d="M13.0488,18.5977l-2.2011-4.3208-4.7901.7587,3.4292-3.4292L7.2856,7.2856l4.3208,2.2012,3.4292-3.4292-.7587,4.7901,4.3208,2.2011-4.7901.7588Zm-1.1626-4.4854.6568,1.2891.226-1.4292ZM9.9644,12.543l-1.023,1.0234,1.4287-.2266Zm.7436-.7432.7007,1.3755,1.5249-.2417.2417-1.5249-1.3755-.7007Zm3.4043.0864-.1401.8828,1.4292-.226ZM9.5737,9.5737l.6568,1.2891.6323-.6323Zm2.9693.3907.7968.4057.2266-1.4287Z" style="fill:#fa6d62"/><path d="M14.7578,20.6631a.75027.75027,0,0,1-.75-.75V18.1367a.75.75,0,0,1,1.5,0v1.7764A.75021.75021,0,0,1,14.7578,20.6631Z" style="fill:#fa6d62"/><path d="M12.2578,21.5742a.75021.75021,0,0,1-.75-.75V18.75a.75.75,0,0,1,1.5,0v2.0742A.75015.75015,0,0,1,12.2578,21.5742Z" style="fill:#fa6d62"/><path d="M8.25,19.5625a.75015.75015,0,0,1-.75-.75V17.1499a.75.75,0,0,1,1.5,0v1.6626A.75015.75015,0,0,1,8.25,19.5625Z" style="fill:#fa6d62"/></svg>